<?xml version="1.0" encoding="UTF-8"?>
<svg width="24px" height="24px" viewBox="0 0 24 24" version="1.1" xmlns="http://www.w3.org/2000/svg" xmlns:xlink="http://www.w3.org/1999/xlink">
    <!-- Generator: Sketch 44.1 (41455) - http://www.bohemiancoding.com/sketch -->
    <title>Artboard Copy</title>
    <desc>Created with Sketch.</desc>
    <defs>
        <polygon id="path-1" points="4.51428571 0.314171429 4.51428571 2.02845714 0.000228571429 2.02845714 0.000228571429 0.314171429 4.51428571 0.314171429"></polygon>
    </defs>
    <g id="Page-1" stroke="none" stroke-width="1" fill="none" fill-rule="evenodd">
        <g id="Artboard-Copy">
            <g id="Page-1">
                <path d="M16.024,16.0446286 C13.7382857,18.3303429 10.032,18.3303429 7.74628571,16.0446286 C5.46057143,13.7589143 5.46057143,10.0526286 7.74628571,7.76634286 C10.032,5.48062857 13.7382857,5.48062857 16.024,7.76634286 C18.3102857,10.0526286 18.3102857,13.7589143 16.024,16.0446286" id="Fill-1" fill="#4D4D4D"></path>
                <path d="M17.8504571,6.9492 C17.6310286,6.9492 17.4116,6.86577143 17.2441714,6.69834286 C16.9098857,6.36348571 16.9098857,5.82062857 17.2441714,5.48577143 L19.2241714,3.50634286 C19.5590286,3.17148571 20.1013143,3.17148571 20.4361714,3.50634286 C20.7710286,3.8412 20.7710286,4.38405714 20.4361714,4.71834286 L18.4567429,6.69834286 C18.2893143,6.86577143 18.0698857,6.9492 17.8504571,6.9492" id="Fill-3" fill="#4D4D4D"></path>
                <path d="M4.11274286,20.6874857 C3.89331429,20.6874857 3.67388571,20.6040571 3.50645714,20.4366286 C3.17217143,20.1017714 3.17217143,19.5589143 3.50645714,19.2240571 L5.48588571,17.2446286 C5.82074286,16.9097714 6.36302857,16.9097714 6.69788571,17.2440571 C7.03274286,17.5789143 7.03274286,18.1217714 6.69788571,18.4566286 L4.71902857,20.4366286 C4.5516,20.6040571 4.33217143,20.6874857 4.11274286,20.6874857" id="Fill-5" fill="#4D4D4D"></path>
                <path d="M6.09205714,6.9492 C5.87262857,6.9492 5.6532,6.86577143 5.48577143,6.69834286 L3.50691429,4.71834286 C3.17205714,4.38348571 3.17205714,3.8412 3.50691429,3.50634286 C3.84177143,3.17148571 4.38405714,3.17148571 4.71891429,3.50634286 L6.69834286,5.48577143 C7.03262857,5.82062857 7.03262857,6.36348571 6.69834286,6.69834286 C6.53091429,6.86577143 6.31148571,6.9492 6.09205714,6.9492" id="Fill-7" fill="#4D4D4D"></path>
                <path d="M19.8303429,20.6874857 C19.6109143,20.6874857 19.3914857,20.6040571 19.2240571,20.4366286 L17.2446286,18.4566286 C16.9097714,18.1217714 16.9097714,17.5789143 17.2446286,17.2446286 C17.5794857,16.9097714 18.1217714,16.9097714 18.4566286,17.2446286 L20.4366286,19.2240571 C20.7709143,19.5589143 20.7709143,20.1017714 20.4366286,20.4366286 C20.2692,20.6040571 20.0497714,20.6874857 19.8303429,20.6874857" id="Fill-9" fill="#4D4D4D"></path>
                <path d="M17.7176571,11.9857714 C17.7176571,15.2183429 15.0965143,17.8394857 11.8639429,17.8394857 C8.63137143,17.8394857 6.0108,15.2183429 6.0108,11.9857714 C6.0108,8.7532 8.63137143,6.13262857 11.8639429,6.13262857 C15.0965143,6.13262857 17.7176571,8.7532 17.7176571,11.9857714" id="Fill-11" fill="#4D4D4D"></path>
                <path d="M11.9715429,4.51422857 C11.4984,4.51422857 11.1144,4.1308 11.1144,3.65708571 L11.1144,0.857085714 C11.1144,0.383371429 11.4984,-5.71428571e-05 11.9715429,-5.71428571e-05 C12.4446857,-5.71428571e-05 12.8286857,0.383371429 12.8286857,0.857085714 L12.8286857,3.65708571 C12.8286857,4.1308 12.4446857,4.51422857 11.9715429,4.51422857" id="Fill-13" fill="#4D4D4D"></path>
                <path d="M11.9715429,23.9428 C11.4984,23.9428 11.1144,23.5593714 11.1144,23.0856571 L11.1144,20.2856571 C11.1144,19.8119429 11.4984,19.4285143 11.9715429,19.4285143 C12.4446857,19.4285143 12.8286857,19.8119429 12.8286857,20.2856571 L12.8286857,23.0856571 C12.8286857,23.5593714 12.4446857,23.9428 11.9715429,23.9428" id="Fill-15" fill="#4D4D4D"></path>
                <path d="M3.65737143,12.8284 L0.857371429,12.8284 C0.383657143,12.8284 0.000228571429,12.4449714 0.000228571429,11.9712571 C0.000228571429,11.4975429 0.383657143,11.1141143 0.857371429,11.1141143 L3.65737143,11.1141143 C4.13051429,11.1141143 4.51451429,11.4975429 4.51451429,11.9712571 C4.51451429,12.4449714 4.13051429,12.8284 3.65737143,12.8284" id="Fill-17" fill="#4D4D4D"></path>
                <g id="Group-21" transform="translate(19.428571, 10.799943)">
                    <mask id="mask-2" fill="white">
                        <use xlink:href="#path-1"></use>
                    </mask>
                    <g id="Clip-20"></g>
                    <path d="M3.65737143,2.02845714 L0.857371429,2.02845714 C0.383657143,2.02845714 0.000228571429,1.64502857 0.000228571429,1.17131429 C0.000228571429,0.6976 0.383657143,0.314171429 0.857371429,0.314171429 L3.65737143,0.314171429 C4.13051429,0.314171429 4.51451429,0.6976 4.51451429,1.17131429 C4.51451429,1.64502857 4.13051429,2.02845714 3.65737143,2.02845714" id="Fill-19" fill="#4D4D4D" mask="url(#mask-2)"></path>
                </g>
            </g>
        </g>
    </g>
</svg>