<?xml version="1.0" encoding="UTF-8" standalone="no"?>
<svg
   xmlns:dc="http://purl.org/dc/elements/1.1/"
   xmlns:cc="http://creativecommons.org/ns#"
   xmlns:rdf="http://www.w3.org/1999/02/22-rdf-syntax-ns#"
   xmlns:svg="http://www.w3.org/2000/svg"
   xmlns="http://www.w3.org/2000/svg"
   xmlns:sodipodi="http://sodipodi.sourceforge.net/DTD/sodipodi-0.dtd"
   xmlns:inkscape="http://www.inkscape.org/namespaces/inkscape"
   id="Layer_1"
   data-name="Layer 1"
   viewBox="0 0 25 25"
   version="1.1"
   sodipodi:docname="brightness-lcd-scalable.svg"
   inkscape:version="0.92.2 5c3e80d, 2017-08-06">
  <metadata
     id="metadata27">
    <rdf:RDF>
      <cc:Work
         rdf:about="">
        <dc:format>image/svg+xml</dc:format>
        <dc:type
           rdf:resource="http://purl.org/dc/dcmitype/StillImage" />
      </cc:Work>
    </rdf:RDF>
  </metadata>
  <sodipodi:namedview
     pagecolor="#ffffff"
     bordercolor="#666666"
     borderopacity="1"
     objecttolerance="10"
     gridtolerance="10"
     guidetolerance="10"
     inkscape:pageopacity="0"
     inkscape:pageshadow="2"
     inkscape:window-width="774"
     inkscape:window-height="480"
     id="namedview25"
     showgrid="false"
     inkscape:zoom="9.44"
     inkscape:cx="12.5"
     inkscape:cy="12.5"
     inkscape:window-x="0"
     inkscape:window-y="0"
     inkscape:window-maximized="0"
     inkscape:current-layer="Layer_1" />
  <defs
     id="defs7">
    <style
       id="style2">.cls-1{fill:#fff;}.cls-2{fill:#ffffff;}.cls-3{mask:url(#mask);}</style>
    <mask
       id="mask"
       x="19.96"
       y="11.64"
       width="4.51"
       height="1.71"
       maskUnits="userSpaceOnUse">
      <g
         id="mask-2">
        <polygon
           id="path-1"
           class="cls-1"
           points="24.47 11.64 24.47 13.36 19.96 13.36 19.96 11.64 24.47 11.64" />
      </g>
    </mask>
  </defs>
  <title
     id="title9">YTL_icons_ylapalkki</title>
  <path
     id="Fill-3"
     class="cls-2"
     d="M18.38,7.48A.86.86,0,0,1,17.77,6l2-2A.86.86,0,0,1,21,5.25l-2,2a.85.85,0,0,1-.61.25"
     style="fill:#bebebe;fill-opacity:1" />
  <path
     id="Fill-5"
     class="cls-2"
     d="M4.64,21.22A.86.86,0,0,1,4,19.75l2-2A.86.86,0,1,1,7.23,19l-2,2a.85.85,0,0,1-.61.25"
     style="fill:#bebebe;fill-opacity:1" />
  <path
     id="Fill-7"
     class="cls-2"
     d="M6.62,7.48A.85.85,0,0,1,6,7.23l-2-2A.86.86,0,1,1,5.25,4l2,2a.86.86,0,0,1-.61,1.46"
     style="fill:#bebebe;fill-opacity:1" />
  <path
     id="Fill-9"
     class="cls-2"
     d="M20.36,21.22a.85.85,0,0,1-.61-.25l-2-2A.86.86,0,0,1,19,17.77l2,2a.86.86,0,0,1-.61,1.46"
     style="fill:#bebebe;fill-opacity:1" />
  <path
     id="Fill-13"
     class="cls-2"
     d="M12.5,5a.86.86,0,0,1-.86-.86V1.39a.86.86,0,0,1,1.71,0v2.8A.86.86,0,0,1,12.5,5"
     style="fill:#bebebe;fill-opacity:1" />
  <path
     id="Fill-15"
     class="cls-2"
     d="M12.5,24.47a.86.86,0,0,1-.86-.86v-2.8a.86.86,0,1,1,1.71,0v2.8a.86.86,0,0,1-.86.86"
     style="fill:#bebebe;fill-opacity:1" />
  <path
     id="Fill-17"
     class="cls-2"
     d="M4.19,13.36H1.39a.86.86,0,1,1,0-1.71h2.8a.86.86,0,1,1,0,1.71"
     style="fill:#bebebe;fill-opacity:1" />
  <g
     id="Group-21"
     style="fill:#bebebe;fill-opacity:1">
    <g
       class="cls-3"
       mask="url(#mask)"
       id="g19"
       style="fill:#bebebe;fill-opacity:1">
      <path
         id="Fill-19"
         class="cls-2"
         d="M23.61,13.36h-2.8a.86.86,0,1,1,0-1.71h2.8a.86.86,0,1,1,0,1.71"
         style="fill:#bebebe;fill-opacity:1" />
    </g>
  </g>
  <circle
     class="cls-2"
     cx="12.59"
     cy="12.28"
     r="5.13"
     id="circle22"
     style="fill:#bebebe;fill-opacity:1" />
</svg>
