<?xml version="1.0" encoding="UTF-8" standalone="no"?>
<svg width="47px" height="47px" viewBox="0 0 47 47" version="1.1" xmlns="http://www.w3.org/2000/svg" xmlns:xlink="http://www.w3.org/1999/xlink" xmlns:sketch="http://www.bohemiancoding.com/sketch/ns">
    <!-- Generator: Sketch 3.4.2 (15857) - http://www.bohemiancoding.com/sketch -->
    <title>success-icon</title>
    <desc>Created with Sketch.</desc>
    <defs></defs>
    <g id="Page-1" stroke="none" stroke-width="1" fill="none" fill-rule="evenodd" sketch:type="MSPage">
        <g id="success-icon" sketch:type="MSArtboardGroup" fill="#1F99BA">
            <g id="Page-1-Copy" sketch:type="MSLayerGroup" transform="translate(4.000000, 3.000000)">
                <path d="M20,3.33333333 C10.81,3.33333333 3.33333333,10.81 3.33333333,20 C3.33333333,29.19 10.81,36.6666667 20,36.6666667 C29.19,36.6666667 36.6666667,29.19 36.6666667,20 C36.6666667,10.81 29.19,3.33333333 20,3.33333333 M20,40 C8.9725,40 0,31.0283333 0,20 C0,8.97166667 8.9725,0 20,0 C31.0275,0 40,8.97166667 40,20 C40,31.0283333 31.0275,40 20,40" id="Fill-1" sketch:type="MSShapeGroup"></path>
                <path d="M15.83125,15.71275 C15.83125,16.8619167 14.8995833,17.7935833 13.7504167,17.7935833 C12.6004167,17.7935833 11.66875,16.8619167 11.66875,15.71275 C11.66875,14.5635833 12.6004167,13.6319167 13.7504167,13.6319167 C14.8995833,13.6319167 15.83125,14.5635833 15.83125,15.71275" id="Fill-3" sketch:type="MSShapeGroup"></path>
                <path d="M28.33125,15.71275 C28.33125,16.8619167 27.3995833,17.7935833 26.2504167,17.7935833 C25.1004167,17.7935833 24.16875,16.8619167 24.16875,15.71275 C24.16875,14.5635833 25.1004167,13.6319167 26.2504167,13.6319167 C27.3995833,13.6319167 28.33125,14.5635833 28.33125,15.71275" id="Fill-5" sketch:type="MSShapeGroup"></path>
                <path d="M20,31.0579167 C16.1475,31.0579167 12.6541667,28.77625 11.1,25.24375 L13.3883333,24.2370833 C14.5433333,26.8620833 17.1383333,28.5579167 20,28.5579167 C22.8616667,28.5579167 25.4566667,26.8620833 26.6116667,24.2370833 L28.9,25.24375 C27.3458333,28.77625 23.8525,31.0579167 20,31.0579167" id="Fill-7" sketch:type="MSShapeGroup"></path>
            </g>
        </g>
    </g>
</svg>