<?xml version="1.0" encoding="UTF-8" standalone="no"?>
<svg width="24px" height="24px" viewBox="0 0 24 24" version="1.1" xmlns="http://www.w3.org/2000/svg" xmlns:xlink="http://www.w3.org/1999/xlink" xmlns:sketch="http://www.bohemiancoding.com/sketch/ns">
    <!-- Generator: Sketch 3.4.3 (16618) - http://www.bohemiancoding.com/sketch -->
    <title>icon-koe24</title>
    <desc>Created with Sketch.</desc>
    <defs>
        <linearGradient x1="50%" y1="-2.74192376%" x2="50%" y2="98.7404337%" id="linearGradient-1">
            <stop stop-color="#F0F7B6" offset="0%"/>
            <stop stop-color="#E4EBB8" offset="38.2562696%"/>
            <stop stop-color="#95AFB4" offset="99.1250797%"/>
        </linearGradient>
        <filter x="-50%" y="-50%" width="200%" height="200%" filterUnits="objectBoundingBox" id="filter-2">
            <feOffset dx="0" dy="0" in="SourceAlpha" result="shadowOffsetOuter1"/>
            <feGaussianBlur stdDeviation="1" in="shadowOffsetOuter1" result="shadowBlurOuter1"/>
            <feColorMatrix values="0 0 0 0 0.151094736   0 0 0 0 0.164030566   0 0 0 0 0.185985332  0 0 0 0.388519022 0" in="shadowBlurOuter1" type="matrix" result="shadowMatrixOuter1"/>
            <feMerge>
                <feMergeNode in="shadowMatrixOuter1"/>
                <feMergeNode in="SourceGraphic"/>
            </feMerge>
        </filter>
        <linearGradient x1="50%" y1="-2.74192376%" x2="50%" y2="94.4122516%" id="linearGradient-3">
            <stop stop-color="#E4FFFE" offset="0%"/>
            <stop stop-color="#76E0BE" offset="65.5951052%"/>
            <stop stop-color="#A6B8B7" offset="100%"/>
        </linearGradient>
        <radialGradient cx="50%" cy="50%" fx="50%" fy="50%" r="79.8698902%" id="radialGradient-4">
            <stop stop-color="#50ADCD" offset="0%"/>
            <stop stop-color="#1F6A99" offset="100%"/>
            <stop stop-color="#53A0FE" offset="100%"/>
            <stop stop-color="#4ACBFF" offset="100%"/>
        </radialGradient>
        <path d="M11.0390706,1.92 C4.94239582,1.92 0,6.68235891 0,12.5547413 C0,18.4271238 4.94239582,23.1876923 11.0390706,23.1876923 C17.1357454,23.1876923 22.08,18.4271238 22.08,12.5547413 C22.08,6.68235891 17.1357454,1.92 11.0390706,1.92 L11.0390706,1.92 Z M8.64129304,17.8810638 C7.86619749,18.2659913 8.74538261,19.2739643 7.76396666,19.8021206 C6.78069198,20.330277 8.05764795,21.4510426 6.90151023,21.4671559 C6.90151023,21.4671559 5.53905211,20.8584333 4.81600135,19.2739643 C4.09109184,17.6894952 2.81599461,15.9707492 3.04090243,15.0057449 C3.08551225,14.8159666 3.16172068,14.6548342 3.26209277,14.5223475 C3.13198081,14.3397307 2.95354154,14.1463718 2.71376378,14.0246273 C2.14498864,13.7381696 2.36803771,12.8447797 1.57621349,12.0731344 C0.851303982,11.3695227 1.09294048,10.1055282 2.02417038,8.18447137 C2.95354154,6.26520492 5.59109689,3.57608346 7.14314673,3.81599176 C7.9981682,3.94847844 8.01861436,4.53392632 7.60411482,5.06566339 L7.60783231,5.06566339 C6.88478155,6.5695662 7.36619581,7.33763085 7.36619581,7.33763085 L7.35876084,7.33942122 C7.37363078,7.3716477 7.38850072,7.39850311 7.40151191,7.43251996 C7.78069534,8.42437967 5.63756545,9.45920804 4.47027528,10.3454365 C3.3029851,11.2316649 3.05763111,9.86561987 2.33643909,10.3812437 C1.61710582,10.8968675 1.90706962,11.6506093 2.28253557,12.0731344 C2.67844768,12.5207245 2.33458035,13.4176951 3.05763111,13.7059431 C3.27882145,13.7936708 3.44982574,14.0013526 3.58365519,14.2484224 C4.02231838,14.0156755 4.6468558,14.1248875 5.22864214,14.6655764 C6.15987204,15.5303205 6.56693661,16.0763804 7.57809243,16.4756308 C8.591107,16.8730908 9.41824733,17.4979267 8.64129304,17.8810638 L8.64129304,17.8810638 Z M10.7788467,5.42373549 C10.1245694,6.38694943 9.78070208,6.6196963 9.40151865,7.35016338 C9.02047647,8.08063046 8.53906221,7.11741651 8.74538261,6.6196963 C8.95170301,6.12197608 9.47029211,5.88922922 9.26211297,5.05850195 C9.26211297,5.05850195 8.91824564,4.19554819 9.84947555,3.96280132 C10.7788467,3.73005446 11.4349827,4.46052154 10.7788467,5.42373549 L10.7788467,5.42373549 Z M20.0186548,12.662163 C20.3978382,13.2601434 19.9145652,14.2233573 19.8457917,15.2528146 C19.7770183,16.2822719 19.5353818,16.6475054 18.9833353,17.8094494 C18.4331476,18.9713933 17.5019177,19.8021206 16.7435508,20.1673542 C15.9851839,20.5325877 16.5372304,19.4691136 16.2602778,18.70642 C15.9851839,17.9419361 16.7788669,17.4442158 16.158047,16.6475054 C15.537227,15.850795 16.7788669,15.2850411 15.9405741,15.3065254 C15.1041401,15.3262194 13.3643573,16.0817515 12.1729034,15.1131665 C10.9814496,14.1445815 12.0558027,12.662163 13.2955838,11.5664623 C14.5372237,10.4707617 15.1580436,10.8037688 15.7100901,11.0687421 C16.2602778,11.3337155 17.1915077,11.2012288 17.9164172,10.6694917 C18.639468,10.139545 17.9164172,9.50754777 17.3959694,9.93365357 C16.8755215,10.357969 16.3978247,9.60780796 16.2268204,9.87278131 C16.0539574,10.139545 15.5019109,9.87278131 14.881091,9.57379111 C14.2621298,9.27480091 13.9517198,9.9730415 13.7788568,10.4385352 C13.6059938,10.9022386 12.6059904,11.1009686 12.39967,10.3705015 C12.1933496,9.64003445 13.5725364,9.74029464 13.1487432,9.24257442 C12.7249499,8.7448542 13.5037629,8.27936047 14.0539507,8.01438712 C14.6059971,7.74762341 15.0892701,7.64915358 15.1097163,7.03685029 C15.1301625,6.42633736 14.1914976,6.38694943 14.4331341,6.88466965 C14.6747706,7.38238987 14.2268137,7.61513673 13.6059938,7.44863321 C12.9851738,7.28392004 13.5372203,6.45319277 13.3643573,5.85521237 C13.193353,5.25723196 13.7100833,5.0244851 14.2584123,5.11579348 C14.8048826,5.20710187 15.9164105,4.92601527 14.397818,4.04336755 C14.3309033,4.00576998 14.267706,3.96638204 14.2063675,3.93057483 C13.7286708,3.64053643 14.1059955,2.9351344 14.6245846,3.14997766 C15.6264467,3.56355093 17.0056335,4.41039145 18.4219951,5.85342201 C20.9108511,8.39036283 21.120889,11.2012288 21.120889,11.2012288 C21.0521155,12.1984596 19.6394713,12.0641826 20.0186548,12.662163 L20.0186548,12.662163 Z" id="path-5"/>
        <linearGradient x1="245.505226%" y1="-175.0406%" x2="24.9556677%" y2="75.5907817%" id="linearGradient-7">
            <stop stop-color="#7D835B" offset="0%"/>
            <stop stop-color="#FFFFFF" offset="100%"/>
        </linearGradient>
        <filter x="-50%" y="-50%" width="200%" height="200%" filterUnits="objectBoundingBox" id="filter-8">
            <feOffset dx="-1" dy="1" in="SourceAlpha" result="shadowOffsetOuter1"/>
            <feGaussianBlur stdDeviation="0.5" in="shadowOffsetOuter1" result="shadowBlurOuter1"/>
            <feColorMatrix values="0 0 0 0 0.31372549   0 0 0 0 0.31372549   0 0 0 0 0.31372549  0 0 0 0.21 0" in="shadowBlurOuter1" type="matrix" result="shadowMatrixOuter1"/>
            <feMerge>
                <feMergeNode in="shadowMatrixOuter1"/>
                <feMergeNode in="SourceGraphic"/>
            </feMerge>
        </filter>
        <path id="path-9" d="M10.2041713,18.5136226 L22.4624464,18.5136226 C22.813006,18.5136226 23.0976,18.2289887 23.0976,17.87838 L23.0976,5.76730022 C23.0976,5.35071678 22.9223202,5.36014174 22.6283026,5.06231286 L18.7419921,0.851238591 C18.444205,0.549639718 18.2670405,0.47424 17.8448613,0.47424 L10.2041713,0.47424 C9.97174095,0.47424 9.76830933,0.599366362 9.6576,0.78588659 L9.6576,18.201976 C9.6576,18.201976 9.97174095,18.5136226 10.2041713,18.5136226 Z"/>
    </defs>
    <g id="Pages" stroke="none" stroke-width="1" fill="none" fill-rule="evenodd" sketch:type="MSPage">
        <g id="icon-koe24" sketch:type="MSArtboardGroup">
            <g id="Imported-Layers-Copy-2" sketch:type="MSLayerGroup">
                <path d="M22.08,12.5542937 C22.0797489,18.4269991 17.1370687,23.1876923 11.04,23.1876923 C7.99073323,23.1876923 5.23096557,21.9975502 3.23328226,20.0733602 C1.23569409,18.1487632 0,15.4903017 0,12.5538462 C0,6.68108429 4.94252523,1.9202419 11.0395353,1.92000001 C17.1358418,1.92024199 22.0797488,6.68226612 22.08,12.5542937 Z M8.64129304,17.8810638 C7.86619749,18.2659913 8.74538261,19.2739643 7.76396666,19.8021206 C6.78069198,20.330277 8.05764795,21.4510426 6.90151023,21.4671559 C6.90151023,21.4671559 5.53905211,20.8584333 4.81600135,19.2739643 C4.09109184,17.6894952 2.81599461,15.9707492 3.04090243,15.0057449 C3.08551225,14.8159666 3.16172068,14.6548342 3.26209277,14.5223475 C3.13198081,14.3397307 2.95354154,14.1463718 2.71376378,14.0246273 C2.14498864,13.7381696 2.36803771,12.8447797 1.57621349,12.0731344 C0.851303982,11.3695227 1.09294048,10.1055282 2.02417038,8.18447137 C2.95354154,6.26520492 5.59109689,3.57608346 7.14314673,3.81599176 C7.9981682,3.94847844 8.01861436,4.53392632 7.60411482,5.06566339 L7.60783231,5.06566339 C6.88478155,6.5695662 7.36619581,7.33763085 7.36619581,7.33763085 L7.35876084,7.33942122 C7.37363078,7.3716477 7.38850072,7.39850311 7.40151191,7.43251996 C7.78069534,8.42437967 5.63756545,9.45920804 4.47027528,10.3454365 C3.3029851,11.2316649 3.05763111,9.86561987 2.33643909,10.3812437 C1.61710582,10.8968675 1.90706962,11.6506093 2.28253557,12.0731344 C2.67844768,12.5207245 2.33458035,13.4176951 3.05763111,13.7059431 C3.27882145,13.7936708 3.44982574,14.0013526 3.58365519,14.2484224 C4.02231838,14.0156755 4.6468558,14.1248875 5.22864214,14.6655764 C6.15987204,15.5303205 6.56693661,16.0763804 7.57809243,16.4756308 C8.591107,16.8730908 9.41824733,17.4979267 8.64129304,17.8810638 L8.64129304,17.8810638 Z M10.7788467,5.42373549 C10.1245694,6.38694943 9.78070208,6.6196963 9.40151865,7.35016338 C9.02047647,8.08063046 8.53906221,7.11741651 8.74538261,6.6196963 C8.95170301,6.12197608 9.47029211,5.88922922 9.26211297,5.05850195 C9.26211297,5.05850195 8.91824564,4.19554819 9.84947555,3.96280132 C10.7788467,3.73005446 11.4349827,4.46052154 10.7788467,5.42373549 L10.7788467,5.42373549 Z M18.5797787,18.5136226 C18.0395413,19.308043 17.3383734,19.8808844 16.7435508,20.1673542 C15.9851839,20.5325877 16.5372304,19.4691136 16.2602778,18.70642 C16.2364777,18.6402796 16.2206774,18.5761359 16.2112689,18.5136226 L10.2041713,18.5136226 C9.97174095,18.5136226 9.76830933,18.3884962 9.6576,18.201976 L9.6576,0.78588659 C9.76830933,0.599366362 9.97174095,0.47424 10.2041713,0.47424 L17.8448613,0.47424 C18.2670405,0.47424 18.444205,0.549639718 18.7419921,0.851238591 L22.6283026,5.06231286 C22.9223202,5.36014174 23.0976,5.35071678 23.0976,5.76730022 L23.0976,17.87838 C23.0976,18.2289887 22.813006,18.5136226 22.4624464,18.5136226 L18.5797787,18.5136226 Z" id="Oval-20-Copy" fill="url(#linearGradient-1)" filter="url(#filter-2)" sketch:type="MSShapeGroup"/>
                <ellipse id="Oval-20" fill="url(#linearGradient-3)" sketch:type="MSShapeGroup" cx="11.04" cy="12.5538462" rx="11.04" ry="10.6338462"/>
                <mask id="mask-6" sketch:name="Clip 2" fill="white">
                    <use xlink:href="#path-5"/>
                </mask>
                <use id="Clip-2" fill="url(#radialGradient-4)" sketch:type="MSShapeGroup" xlink:href="#path-5"/>
                <mask id="mask-10" sketch:name="Clip 2" fill="white">
                    <use xlink:href="#path-9"/>
                </mask>
                <use id="Clip-2" fill="url(#linearGradient-7)" filter="url(#filter-8)" sketch:type="MSShapeGroup" xlink:href="#path-9"/>
                <path d="M18.2976,0.47424 L18.2976,4.54226944 C18.2976,5.10351228 18.7528739,5.55682381 19.3121544,5.55682381 L23.0976,5.55682381" id="Imported-Layers" fill="#FFFFFF" sketch:type="MSShapeGroup" mask="url(#mask-10)"/>
            </g>
        </g>
    </g>
</svg>