<?xml version="1.0" encoding="UTF-8" standalone="no"?>
<svg width="38px" height="31px" viewBox="0 0 38 31" version="1.1" xmlns="http://www.w3.org/2000/svg" xmlns:xlink="http://www.w3.org/1999/xlink">
    <!-- Generator: Sketch 3.6.1 (26313) - http://www.bohemiancoding.com/sketch -->
    <title>icon-language copy</title>
    <desc>Created with Sketch.</desc>
    <defs>
        <linearGradient x1="95.7091137%" y1="43.1848893%" x2="-132.123326%" y2="51.8080711%" id="linearGradient-1">
            <stop stop-color="#FFFFFF" offset="0%"></stop>
            <stop stop-color="#D6D6D6" offset="81.0029462%"></stop>
            <stop stop-color="#FFFFFF" offset="100%"></stop>
        </linearGradient>
        <filter x="-50%" y="-50%" width="200%" height="200%" filterUnits="objectBoundingBox" id="filter-2">
            <feOffset dx="0" dy="0" in="SourceAlpha" result="shadowOffsetOuter1"></feOffset>
            <feGaussianBlur stdDeviation="0.5" in="shadowOffsetOuter1" result="shadowBlurOuter1"></feGaussianBlur>
            <feColorMatrix values="0 0 0 0 0   0 0 0 0 0   0 0 0 0 0  0 0 0 0.35 0" in="shadowBlurOuter1" type="matrix" result="shadowMatrixOuter1"></feColorMatrix>
            <feMerge>
                <feMergeNode in="shadowMatrixOuter1"></feMergeNode>
                <feMergeNode in="SourceGraphic"></feMergeNode>
            </feMerge>
        </filter>
    </defs>
    <g id="Page-1" stroke="none" stroke-width="1" fill="none" fill-rule="evenodd">
        <g id="icon-language-copy">
            <g id="Page-1" transform="translate(18.923077, 15.500000) scale(-1, 1) translate(-18.923077, -15.500000) translate(0.923077, 1.000000)">
                <path d="M34.8653846,12.7979615 C34.8653846,6.34588462 27.3102308,1.11526923 17.9903846,1.11526923 C8.67053846,1.11526923 1.11538462,6.34588462 1.11538462,12.7979615 C1.11538462,19.2500385 8.67053846,24.4806538 17.9903846,24.4806538 C19.2552308,24.4806538 20.4856923,24.3811923 21.6711538,24.1986538 C22.306,25.3935769 25.4149231,28.0947308 29.4423077,27.8268077 C29.4423077,27.8268077 27.3515385,26.0051154 27.0990769,22.6301154 C31.7691538,20.5522692 34.8653846,16.9266538 34.8653846,12.7979615" id="Fill-1" fill="url(#linearGradient-1)"></path>
                <path d="M35.8653846,12.7979615 C35.8653846,5.6985219 27.8007456,0.115269231 17.9903846,0.115269231 C8.18002366,0.115269231 0.115384615,5.6985219 0.115384615,12.7979615 C0.115384615,19.8974012 8.18002366,25.4806538 17.9903846,25.4806538 C19.2815225,25.4806538 20.5623991,25.3811665 21.8233411,25.1870055 L20.7880514,24.667834 C21.9474942,26.8501658 25.7691873,29.0733736 29.5086863,28.8246022 C30.3987037,28.7653935 30.7717497,27.6588174 30.0992319,27.0728511 C30.0576156,27.0365907 29.9596669,26.9400117 29.8237573,26.785215 C29.5849108,26.5131767 29.3433678,26.186345 29.1167923,25.8069902 C28.5580039,24.8714121 28.1884039,23.786922 28.0962908,22.5555204 L27.505584,23.543763 C32.6392156,21.2596686 35.8653846,17.2627172 35.8653846,12.7979615 L35.8653846,12.7979615 Z M33.8653846,12.7979615 C33.8653846,16.3802371 31.1640249,19.7269939 26.6925699,21.7164677 C26.3067647,21.8881231 26.0703638,22.2836178 26.101863,22.7047104 C26.2183571,24.2620474 26.6886185,25.6419008 27.3997384,26.832527 C27.9025797,27.6744331 28.4149447,28.2580001 28.7853835,28.5807643 L29.3759291,26.8290132 C26.4375597,27.0244892 23.3508532,25.2288479 22.5542563,23.7294737 C22.3546927,23.3538501 21.9393574,23.14557 21.5189665,23.2103022 C20.3580086,23.3890675 19.1788558,23.4806538 17.9903846,23.4806538 C9.16117724,23.4806538 2.11538462,18.6027616 2.11538462,12.7979615 C2.11538462,6.9931615 9.16117724,2.11526923 17.9903846,2.11526923 C26.819592,2.11526923 33.8653846,6.9931615 33.8653846,12.7979615 L33.8653846,12.7979615 Z" id="Stroke-3" fill="#494949" filter="url(#filter-2)"></path>
            </g>
        </g>
    </g>
</svg>