<?xml version="1.0" encoding="UTF-8" standalone="no"?>
<svg width="26px" height="25px" viewBox="0 0 26 25" version="1.1" xmlns="http://www.w3.org/2000/svg" xmlns:xlink="http://www.w3.org/1999/xlink" xmlns:sketch="http://www.bohemiancoding.com/sketch/ns">
    <!-- Generator: Sketch 3.4.4 (17249) - http://www.bohemiancoding.com/sketch -->
    <title>icon-koe24 copy 2</title>
    <desc>Created with Sketch.</desc>
    <defs>
        <path d="M6.35779015,22.187 C5.18996121,21.6594502 4.13431416,20.9407344 3.234,20.073 C1.236,18.149 0,15.49 0,12.554 C0,7.132 4.213,2.657 9.658,2.003 L9.658,0.786 C9.669,0.768 9.68,0.76 9.692,0.76 C9.808,0.76 9.994,1.474 10.204,1.474 L17.845,1.474 C18.267,1.474 18.445,0.55 18.742,0.851 L22.629,5.062 C22.922,5.36 23.098,5.351 23.098,5.767 L23.098,17.878 C23.098,18.229 22.813,16.514 22.462,16.514 L20.917,17.309 C21.661,15.878 22.08,14.264 22.08,12.555 C22.08,6.682 17.136,1.92 11.039,1.92 C10.571,1.92 10.111,1.948 9.658,2.003 L9.658,4.026 C8.968,4.322 9.262,5.059 9.262,5.059 C9.471,5.889 8.951,6.122 8.745,6.62 C8.539,7.118 9.021,8.081 9.401,7.35 C9.488,7.184 9.571,7.045 9.658,6.916 L9.658,18.202 C9.768,18.389 9.972,18.514 10.204,18.514 L16.212,18.514 C16.221,18.576 16.237,18.641 16.26,18.706 C16.537,19.469 15.985,20.532 16.743,20.168 C17.338,19.881 18.04,19.308 18.579,18.514 L20.917,17.309 C19.952,19.166 18.439,20.712 16.583,21.751 L11.5533127,22.187 L6.35779015,22.187 L6.35779015,22.187 Z M4.816,19.274 C4.091,17.689 2.816,15.971 3.041,15.005 C3.085,14.816 3.162,14.654 3.262,14.522 C3.132,14.339 2.954,14.147 2.713,14.024 C2.145,13.738 2.368,12.844 1.576,12.073 C0.851,11.369 1.092,10.106 2.024,8.184 C2.954,6.266 5.591,3.576 7.143,3.816 C7.998,3.949 8.019,4.534 7.604,5.066 L7.608,5.066 C6.885,6.57 7.366,7.337 7.366,7.337 L7.359,7.339 C7.374,7.372 7.389,7.399 7.402,7.433 C7.78,8.425 5.637,9.46 4.47,10.345 C3.834,10.829 3.471,10.643 3.157,10.457 C2.893,10.302 2.664,10.147 2.336,10.381 C1.617,10.897 1.907,11.65 2.282,12.073 C2.678,12.52 2.335,13.418 3.057,13.706 C3.279,13.794 3.45,14.001 3.584,14.249 C4.022,14.015 4.647,14.125 5.229,14.665 C6.16,15.53 6.567,16.076 7.578,16.476 C8.591,16.873 9.418,17.497 8.642,17.881 C7.866,18.266 8.745,19.274 7.764,19.802 C6.781,20.331 8.058,21.451 6.901,21.467 C6.901,21.467 5.539,20.858 4.816,19.274 L4.816,19.274 Z M9.85,3.962 C9.778,3.98 9.714,4.002 9.658,4.026 L9.658,6.916 C9.953,6.477 10.273,6.169 10.779,5.424 C11.352,4.583 10.924,3.919 10.188,3.919 C10.081,3.919 9.967,3.933 9.85,3.962 L9.85,3.962 Z" id="path-1"/>
        <path id="path-3" d="M0,11.554 C0,17.427 4.943,22.187 11.04,22.187 C17.137,22.187 22.08,17.427 22.08,11.554 C22.08,5.681 17.137,0.92 11.04,0.92 C4.943,0.92 0,5.681 0,11.554 L0,11.554 Z"/>
        <linearGradient x1="2318.84058%" y1="-132.016644%" x2="2318.84058%" y2="4545.70717%" id="linearGradient-5">
            <stop stop-color="#E4FFFE" offset="0%"/>
            <stop stop-color="#A6B8B7" offset="100%"/>
        </linearGradient>
        <path id="path-6" d="M0,11.554 C0,17.427 4.943,22.187 11.04,22.187 L11.04,22.187 C17.137,22.187 22.08,17.427 22.08,11.554 L22.08,11.554 C22.08,5.681 17.137,0.92 11.04,0.92 L11.04,0.92 C4.943,0.92 0,5.681 0,11.554"/>
        <linearGradient x1="50%" y1="-2.74201298%" x2="50%" y2="94.4152918%" id="linearGradient-8">
            <stop stop-color="#E4FFFE" offset="0%"/>
            <stop stop-color="#A6B8B7" offset="100%"/>
        </linearGradient>
        <path d="M0,11.555 C0,17.427 4.943,22.187 11.039,22.187 C17.136,22.187 22.08,17.427 22.08,11.555 C22.08,5.682 17.136,0.92 11.039,0.92 C4.943,0.92 0,5.682 0,11.555 L0,11.555 Z M14.398,3.043 C14.331,3.006 14.268,2.966 14.206,2.931 C13.729,2.64 14.106,1.936 14.625,2.15 C15.627,2.564 17.005,3.411 18.422,4.853 C20.911,7.39 21.121,10.201 21.121,10.201 C21.052,11.198 19.64,11.064 20.019,11.662 C20.398,12.26 19.914,13.223 19.846,14.253 C19.777,15.283 19.535,15.648 18.984,16.81 C18.433,17.972 17.502,18.802 16.743,19.168 C15.985,19.532 16.537,18.469 16.26,17.706 C15.985,16.942 16.779,16.444 16.158,15.648 C15.538,14.85 16.779,14.285 15.941,14.307 C15.104,14.326 13.364,15.082 12.173,14.113 C10.982,13.145 12.055,11.662 13.296,10.566 C14.538,9.471 15.158,9.804 15.71,10.069 C16.26,10.333 17.192,10.201 17.916,9.669 C18.64,9.139 17.916,8.507 17.396,8.934 C17.117,9.162 16.85,9.051 16.635,8.941 C16.451,8.846 16.306,8.75 16.227,8.873 C16.054,9.139 15.501,8.873 14.881,8.574 C14.262,8.275 13.952,8.973 13.779,9.439 C13.606,9.902 12.606,10.101 12.4,9.37 C12.193,8.64 13.573,8.74 13.149,8.243 C12.725,7.745 13.503,7.28 14.054,7.014 C14.606,6.748 15.089,6.649 15.11,6.037 C15.13,5.427 14.191,5.387 14.433,5.885 C14.674,6.382 14.227,6.615 13.606,6.449 C12.985,6.284 13.537,5.454 13.364,4.855 C13.193,4.257 13.71,4.024 14.259,4.116 C14.323,4.127 14.395,4.132 14.47,4.132 C15.031,4.132 15.737,3.822 14.398,3.043 Z M4.816,18.274 C4.091,16.689 2.816,14.971 3.041,14.005 C3.085,13.816 3.162,13.654 3.262,13.522 C3.132,13.339 2.954,13.147 2.713,13.024 C2.145,12.738 2.368,11.844 1.576,11.073 C0.851,10.369 1.092,9.106 2.024,7.184 C2.954,5.266 5.591,2.576 7.143,2.816 C7.998,2.949 8.019,3.534 7.604,4.066 L7.608,4.066 C6.885,5.57 7.366,6.337 7.366,6.337 L7.359,6.339 C7.374,6.372 7.389,6.399 7.402,6.433 C7.78,7.425 5.637,8.46 4.47,9.345 C3.834,9.829 3.471,9.643 3.157,9.457 C2.893,9.302 2.664,9.147 2.336,9.381 C1.617,9.897 1.907,10.65 2.282,11.073 C2.678,11.52 2.335,12.418 3.057,12.706 C3.279,12.794 3.45,13.001 3.584,13.249 C4.022,13.015 4.647,13.125 5.229,13.665 C6.16,14.53 6.567,15.076 7.578,15.476 C8.591,15.873 9.418,16.497 8.642,16.881 C7.866,17.266 8.745,18.274 7.764,18.802 C6.781,19.331 8.058,20.451 6.901,20.467 C6.901,20.467 5.539,19.858 4.816,18.274 Z M8.745,5.62 C8.951,5.122 9.471,4.889 9.262,4.059 C9.262,4.059 8.918,3.195 9.85,2.962 C10.779,2.73 11.435,3.46 10.779,4.424 C10.125,5.387 9.781,5.62 9.401,6.35 C9.303,6.539 9.198,6.615 9.1,6.615 C8.818,6.615 8.592,5.989 8.745,5.62 L8.745,5.62 Z" id="path-9"/>
        <radialGradient cx="2318.84058%" cy="2407.37235%" fx="2318.84058%" fy="2407.37235%" r="3704.11232%" id="radialGradient-11">
            <stop stop-color="#50ADCD" offset="0%"/>
            <stop stop-color="#1F6A99" offset="100%"/>
        </radialGradient>
        <path d="M0,11.555 C0,17.427 4.943,22.187 11.039,22.187 C17.136,22.187 22.08,17.427 22.08,11.555 C22.08,5.682 17.136,0.92 11.039,0.92 C4.943,0.92 0,5.682 0,11.555 L0,11.555 Z M14.398,3.043 C14.331,3.006 14.268,2.966 14.206,2.931 C13.729,2.64 14.106,1.936 14.625,2.15 C15.627,2.564 17.005,3.411 18.422,4.853 C20.911,7.39 21.121,10.201 21.121,10.201 C21.052,11.198 19.64,11.064 20.019,11.662 C20.398,12.26 19.914,13.223 19.846,14.253 C19.777,15.283 19.535,15.648 18.984,16.81 C18.433,17.972 17.502,18.802 16.743,19.168 C15.985,19.532 16.537,18.469 16.26,17.706 C15.985,16.942 16.779,16.444 16.158,15.648 C15.538,14.85 16.779,14.285 15.941,14.307 C15.104,14.326 13.364,15.082 12.173,14.113 C10.982,13.145 12.055,11.662 13.296,10.566 C14.538,9.471 15.158,9.804 15.71,10.069 C16.26,10.333 17.192,10.201 17.916,9.669 C18.64,9.139 17.916,8.507 17.396,8.934 C17.117,9.162 16.85,9.051 16.635,8.941 C16.451,8.846 16.306,8.75 16.227,8.873 C16.054,9.139 15.501,8.873 14.881,8.574 C14.262,8.275 13.952,8.973 13.779,9.439 C13.606,9.902 12.606,10.101 12.4,9.37 C12.193,8.64 13.573,8.74 13.149,8.243 C12.725,7.745 13.503,7.28 14.054,7.014 C14.606,6.748 15.089,6.649 15.11,6.037 C15.13,5.427 14.191,5.387 14.433,5.885 C14.674,6.382 14.227,6.615 13.606,6.449 C12.985,6.284 13.537,5.454 13.364,4.855 C13.193,4.257 13.71,4.024 14.259,4.116 C14.323,4.127 14.395,4.132 14.47,4.132 C15.031,4.132 15.737,3.822 14.398,3.043 L14.398,3.043 Z M4.816,18.274 C4.091,16.689 2.816,14.971 3.041,14.005 C3.085,13.816 3.162,13.654 3.262,13.522 C3.132,13.339 2.954,13.147 2.713,13.024 C2.145,12.738 2.368,11.844 1.576,11.073 C0.851,10.369 1.092,9.106 2.024,7.184 C2.954,5.266 5.591,2.576 7.143,2.816 C7.998,2.949 8.019,3.534 7.604,4.066 L7.608,4.066 C6.885,5.57 7.366,6.337 7.366,6.337 L7.359,6.339 C7.374,6.372 7.389,6.399 7.402,6.433 C7.78,7.425 5.637,8.46 4.47,9.345 C3.834,9.829 3.471,9.643 3.157,9.457 C2.893,9.302 2.664,9.147 2.336,9.381 C1.617,9.897 1.907,10.65 2.282,11.073 C2.678,11.52 2.335,12.418 3.057,12.706 C3.279,12.794 3.45,13.001 3.584,13.249 C4.022,13.015 4.647,13.125 5.229,13.665 C6.16,14.53 6.567,15.076 7.578,15.476 C8.591,15.873 9.418,16.497 8.642,16.881 C7.866,17.266 8.745,18.274 7.764,18.802 C6.781,19.331 8.058,20.451 6.901,20.467 C6.901,20.467 5.539,19.858 4.816,18.274 L4.816,18.274 Z M8.745,5.62 C8.951,5.122 9.471,4.889 9.262,4.059 C9.262,4.059 8.918,3.195 9.85,2.962 C10.779,2.73 11.435,3.46 10.779,4.424 C10.125,5.387 9.781,5.62 9.401,6.35 C9.303,6.539 9.198,6.615 9.1,6.615 C8.818,6.615 8.592,5.989 8.745,5.62 L8.745,5.62 Z" id="path-12"/>
        <radialGradient cx="48%" cy="50.2342748%" fx="48%" fy="50.2342748%" r="76.6752174%" id="radialGradient-14">
            <stop stop-color="#50ADCD" offset="0%"/>
            <stop stop-color="#1F6A99" offset="100%"/>
        </radialGradient>
        <path id="path-15" d="M1,0 C0,0 0,0 0,1 L0,1 L0,16 C0,17 0,17 1,17 L1,17 L12,17 C13,17 13,17 13,16 L13,16 L13,4.988 C13,4.596 12.784,4.281 12.5,4 L12.5,4 L8.787,0.355 C8.499,0.071 8.327,0 7.919,0 L7.919,0 L1,0 Z"/>
    </defs>
    <g id="Pages" stroke="none" stroke-width="1" fill="none" fill-rule="evenodd" sketch:type="MSPage">
        <g id="icon-koe24-copy-2" sketch:type="MSArtboardGroup">
            <g id="Page-1" sketch:type="MSLayerGroup" transform="translate(1.000000, 0.000000)">
                <g id="Group-3" transform="translate(1.000000, 0.000000)">
                    <mask id="mask-2" sketch:name="Clip 2" fill="white">
                        <use xlink:href="#path-1"/>
                    </mask>
                    <g id="Clip-2"/>
                </g>
                <g id="Group-9" transform="translate(1.000000, 1.000000)">
                    <mask id="mask-4" sketch:name="Clip 8" fill="white">
                        <use xlink:href="#path-3"/>
                    </mask>
                    <g id="Clip-8"/>
                    <path d="M0,0.92 L22.08,0.92 L22.08,22.188 L0,22.188 L0,0.92 Z" id="Fill-7" fill="url(#linearGradient-5)" sketch:type="MSShapeGroup" mask="url(#mask-4)"/>
                </g>
                <g id="Group-12" transform="translate(1.000000, 1.000000)">
                    <mask id="mask-7" sketch:name="Clip 11" fill="white">
                        <use xlink:href="#path-6"/>
                    </mask>
                    <g id="Clip-11"/>
                    <path d="M0,11.554 C0,17.427 4.943,22.187 11.04,22.187 L11.04,22.187 C17.137,22.187 22.08,17.427 22.08,11.554 L22.08,11.554 C22.08,5.681 17.137,0.92 11.04,0.92 L11.04,0.92 C4.943,0.92 0,5.681 0,11.554" id="Fill-10" fill="url(#linearGradient-8)" sketch:type="MSShapeGroup" mask="url(#mask-7)"/>
                </g>
                <path d="M12.04,2.4199 C6.228,2.4199 1.5,6.9659 1.5,12.5539 C1.5,18.1419 6.228,22.6879 12.04,22.6879 C17.852,22.6879 22.58,18.1419 22.58,12.5539 C22.58,6.9659 17.852,2.4199 12.04,2.4199 M12.04,23.9279 C5.539,23.9279 0.25,18.8259 0.25,12.5539 C0.25,6.2819 5.539,1.1789 12.04,1.1789 C18.541,1.1789 23.83,6.2819 23.83,12.5539 C23.83,18.8259 18.541,23.9279 12.04,23.9279" id="Fill-13" fill="#515151" sketch:type="MSShapeGroup"/>
                <g id="Group-21" transform="translate(1.000000, 1.000000)">
                    <g id="Group-17">
                        <mask id="mask-10" sketch:name="Clip 16" fill="white">
                            <use xlink:href="#path-9"/>
                        </mask>
                        <g id="Clip-16"/>
                        <path d="M0,0.92 L22.08,0.92 L22.08,22.188 L0,22.188 L0,0.92 Z" id="Fill-15" fill="url(#radialGradient-11)" sketch:type="MSShapeGroup" mask="url(#mask-10)"/>
                    </g>
                    <g id="Group-20">
                        <mask id="mask-13" sketch:name="Clip 19" fill="white">
                            <use xlink:href="#path-12"/>
                        </mask>
                        <g id="Clip-19"/>
                        <path d="M0,23 L23,23 L23,0 L0,0 L0,23 Z" id="Fill-18" fill="url(#radialGradient-14)" sketch:type="MSShapeGroup" mask="url(#mask-13)"/>
                    </g>
                </g>
                <path d="M23.5877,17.6184 L11.5467,17.6184 L11.5467,1.3034 L19.3807,1.3034 L23.5877,5.6144 L23.5877,17.6184 Z" id="Fill-22" fill="#FFFFFF" sketch:type="MSShapeGroup"/>
                <g id="Group-26" transform="translate(11.000000, 1.000000)">
                    <mask id="mask-16" sketch:name="Clip 25" fill="white">
                        <use xlink:href="#path-15"/>
                    </mask>
                    <g id="Clip-25"/>
                    <path d="M1,16 L12,16 L12,4.988 C12,4.96 11.958,4.87 11.797,4.711 L8.086,1.069 C8.049,1.032 8.02,1.002 7.989,0.981 C8.012,0.999 7.97,1 7.919,1 L1,1 L1,16 Z M12,18 L1,18 C-0.551,18 -1,17.551 -1,16 L-1,1 C-1,-0.551 -0.551,-1 1,-1 L7.919,-1 C8.588,-1 9.014,-0.826 9.489,-0.356 L13.201,3.286 C13.4,3.483 14,4.076 14,4.988 L14,16 C14,17.551 13.551,18 12,18 L12,18 Z" id="Fill-24" fill="#A8A8A8" sketch:type="MSShapeGroup" mask="url(#mask-16)"/>
                </g>
                <path d="M23,6 L18.5,6 C18.224,6 18,5.776 18,5.5 L18,1 L19,1 L19,5 L23,5 L23,6 Z" id="Fill-27" fill="#A8A8A8" sketch:type="MSShapeGroup"/>
            </g>
        </g>
    </g>
</svg>