<svg id="Layer_1" data-name="Layer 1" xmlns="http://www.w3.org/2000/svg" viewBox="0 0 26 25"><defs><style>.cls-1{fill:#ffffff;}.cls-2{fill:#37b34a;}</style></defs><title>YTL_icons_ylapalkki</title><path class="cls-1" d="M20.75,9.36a10.53,10.53,0,0,0-7.5-7.86,10.86,10.86,0,0,0-2.75-.36A10.5,10.5,0,0,0,.08,10.36h0A10.69,10.69,0,0,0,0,11.65a10.5,10.5,0,0,0,10.5,10.5A10.66,10.66,0,0,0,14,21.54L12,19.22l-.33-.37L11,18.1l.74-.66.29-.26a3,3,0,0,1-1.26-1.91c-.23-1.88,2.07-3.06,2.07-3.06a2.78,2.78,0,0,0,.85,0c.43-.11,1.47-.92,2.55-1.4C19.13,9.46,17.31,8.23,17,8S15.5,9,15.5,9c-.21-.28,0,1.51-.29,1.46S15,9.33,14.3,9.15s-.68,1.57-.73,1.9-1,.86-1.89.91-.54-1-.65-1.36,1.25-.49,1.25-.49a.91.91,0,0,0-.43-.57c-.32-.13-.13-1.45-.13-1.45A10.33,10.33,0,0,1,12,6.61c.11-.24,1.18,0,1.53-.12s-.12-.94-.12-.94a3.08,3.08,0,0,0,.93,0c.52-.09.76-1.15.65-1.59s-.51.6-1.12.77.21-1.49-.27-1.64-.39,1.54-1.21,2-.33-1.82-.59-2.36A.42.42,0,0,1,12,2.26a8.94,8.94,0,0,1,1,.21,9.48,9.48,0,0,1,6.78,7.11A9.8,9.8,0,0,1,20,11.65c0,.32,0,.64,0,1l-1.45-.16s-.53-1-.79-1c-.71.13.24.62,0,.83a1.38,1.38,0,0,1-.79.19,5.6,5.6,0,0,0-1.1-.9c-.47-.23-.9.53-.9.53l1.81,1.68c.22.21,1.26-.65,1.26-.65.59,1.38-.48,2.42-.67,3.84,0,.1.32.36.32.36l3.28-4.06A10.84,10.84,0,0,0,21,11.65,10.69,10.69,0,0,0,20.75,9.36ZM5.52,19.74h0a0,0,0,0,1,0,0A9.57,9.57,0,0,1,1,11.65a9.44,9.44,0,0,1,.07-1.15v-.06A9.48,9.48,0,0,1,4.41,4.35a6.77,6.77,0,0,1-.16,1c-.13.52.56,1.07.19,1.33-.83.59-1.61,1.78-2.35,2.34-1.34,1-1.67,3.5,1.66,3.33,2.68-.13.75,4.33,1.92,6.17C6.48,19.83,6.05,19.91,5.52,19.74Zm.4-13.43c-.47-.63.53-3,.65-3.31h0a7.44,7.44,0,0,1,1.11-.42h.07s1.09.58,1.17,1.25S6.42,7,5.92,6.32ZM9,4.9h.84s-.17.5-.59.5S9,4.9,9,4.9Zm1.59,2.67c-.42.08-.5-1.09-.5-1.09l-.5.67s-.34-.33,0-1,1.12-.65,1.25-.33C11.17,6.65,11,7.47,10.59,7.57Z"/><polygon class="cls-2" points="23.66 11.56 17.35 19.23 14.63 16.18 12.39 18.18 17.46 23.86 26 13.45 23.66 11.56"/></svg>
