<svg id="Layer_1" data-name="Layer 1" xmlns="http://www.w3.org/2000/svg" viewBox="0 0 26 25"><defs><style>.cls-1{fill:#4d4e4e;}.cls-2{fill:#ec1c24;}</style></defs><title>YTL_icons_ylapalkki</title><path class="cls-1" d="M18.5,12.55s-.53-1-.79-1c-.71.13.24.62,0,.83a1.38,1.38,0,0,1-.79.19,5.6,5.6,0,0,0-1.1-.9.32.32,0,0,0-.21,0l1.93,1.93a4.64,4.64,0,0,0,.45-.33,2.12,2.12,0,0,1,.14.52l1.12-1.12ZM17,8.15c-.3-.22-1.5.95-1.5.95-.21-.28,0,1.51-.29,1.46S15,9.45,14.3,9.27c-.28-.08-.44.2-.54.57l1.53,1.53a7.47,7.47,0,0,1,.93-.49C19.13,9.58,17.31,8.35,17,8.15Zm0,0c-.3-.22-1.5.95-1.5.95-.21-.28,0,1.51-.29,1.46S15,9.45,14.3,9.27c-.28-.08-.44.2-.54.57l1.53,1.53a7.47,7.47,0,0,1,.93-.49C19.13,9.58,17.31,8.35,17,8.15Zm4,2.74a10.47,10.47,0,0,0-7.71-9.26,10.86,10.86,0,0,0-2.75-.36A10.5,10.5,0,0,0,.08,10.48h0A10.69,10.69,0,0,0,0,11.77,10.49,10.49,0,0,0,9.62,22.22l4.66-4.66a7.07,7.07,0,0,0-.65-.55c-1.81,1.43-2.82-1.12-2.88-1.63a2.4,2.4,0,0,1,.49-1.71L10.58,13l-.7-.71L12.19,10a.8.8,0,0,0-.34-.34c-.32-.13-.13-1.45-.13-1.45A10.33,10.33,0,0,1,12,6.73c.11-.24,1.18,0,1.53-.12s-.12-.94-.12-.94a3.08,3.08,0,0,0,.93,0c.52-.09.76-1.15.65-1.59s-.51.6-1.12.77.21-1.49-.27-1.64-.39,1.54-1.21,2-.33-1.82-.59-2.36A.42.42,0,0,1,12,2.38a8.94,8.94,0,0,1,1,.21A9.48,9.48,0,0,1,19.77,9.7,9.8,9.8,0,0,1,20,11.77v.08Zm-15.44,9h0a0,0,0,0,1,0,0A9.57,9.57,0,0,1,1,11.77a9.43,9.43,0,0,1,.07-1.15v-.06A9.48,9.48,0,0,1,4.41,4.47a6.76,6.76,0,0,1-.16,1c-.13.52.56,1.07.19,1.33-.83.59-1.61,1.78-2.35,2.34-1.34,1-1.67,3.5,1.66,3.33,2.68-.13.75,4.33,1.92,6.17C6.48,19.95,6,20,5.52,19.86Zm.4-13.43c-.47-.63.53-3,.65-3.31h0A7.44,7.44,0,0,1,7.68,2.7h.07s1.09.58,1.17,1.25S6.42,7.09,5.92,6.43ZM9,5h.84s-.17.5-.59.5S9,5,9,5Zm1.59,2.67c-.42.08-.5-1.09-.5-1.09l-.5.67s-.34-.33,0-1,1.12-.65,1.25-.33C11.17,6.77,11,7.59,10.59,7.68Zm7.91,4.87s-.53-1-.79-1c-.71.13.24.62,0,.83a1.38,1.38,0,0,1-.79.19,5.6,5.6,0,0,0-1.1-.9.32.32,0,0,0-.21,0l1.93,1.93a4.64,4.64,0,0,0,.45-.33,2.12,2.12,0,0,1,.14.52l1.12-1.12Z"/><polygon class="cls-2" points="19.66 17.14 24.49 21.96 22.72 23.73 18.05 19.07 17.89 18.91 13.06 23.73 11.54 22.21 11.29 21.96 16.12 17.14 11.29 12.3 13.06 10.54 13.58 11.05 14.42 11.89 17.84 15.32 17.89 15.38 20.99 12.27 22.72 10.54 24.49 12.3 19.66 17.14"/></svg>