<?xml version="1.0" encoding="UTF-8" standalone="no"?>
<svg
   xmlns:dc="http://purl.org/dc/elements/1.1/"
   xmlns:cc="http://creativecommons.org/ns#"
   xmlns:rdf="http://www.w3.org/1999/02/22-rdf-syntax-ns#"
   xmlns:svg="http://www.w3.org/2000/svg"
   xmlns="http://www.w3.org/2000/svg"
   xmlns:sodipodi="http://sodipodi.sourceforge.net/DTD/sodipodi-0.dtd"
   xmlns:inkscape="http://www.inkscape.org/namespaces/inkscape"
   id="Layer_1"
   data-name="Layer 1"
   viewBox="0 0 26 25"
   version="1.1"
   sodipodi:docname="nm-device-wired.svg"
   inkscape:version="0.92.2 5c3e80d, 2017-08-06">
  <metadata
     id="metadata4549">
    <rdf:RDF>
      <cc:Work
         rdf:about="">
        <dc:format>image/svg+xml</dc:format>
        <dc:type
           rdf:resource="http://purl.org/dc/dcmitype/StillImage" />
      </cc:Work>
    </rdf:RDF>
  </metadata>
  <sodipodi:namedview
     pagecolor="#ffffff"
     bordercolor="#666666"
     borderopacity="1"
     objecttolerance="10"
     gridtolerance="10"
     guidetolerance="10"
     inkscape:pageopacity="0"
     inkscape:pageshadow="2"
     inkscape:window-width="1823"
     inkscape:window-height="1307"
     id="namedview4547"
     showgrid="false"
     inkscape:zoom="9.44"
     inkscape:cx="12.894068"
     inkscape:cy="12.5"
     inkscape:window-x="0"
     inkscape:window-y="0"
     inkscape:window-maximized="0"
     inkscape:current-layer="Layer_1" />
  <defs
     id="defs4538">
    <style
       id="style4536">.cls-1{fill:#bebebeff;}.cls-2{fill:#37b34a;}</style>
  </defs>
  <title
     id="title4540">YTL_icons_ylapalkki</title>
  <path
     class="cls-1"
     d="M 20.75,9.36 A 10.53,10.53 0 0 0 13.25,1.5 10.86,10.86 0 0 0 10.5,1.14 10.5,10.5 0 0 0 0.08,10.36 v 0 A 10.69,10.69 0 0 0 0,11.65 10.5,10.5 0 0 0 10.5,22.15 10.66,10.66 0 0 0 14,21.54 L 12,19.22 11.67,18.85 11,18.1 l 0.74,-0.66 0.29,-0.26 a 3,3 0 0 1 -1.26,-1.91 c -0.23,-1.88 2.07,-3.06 2.07,-3.06 a 2.78,2.78 0 0 0 0.85,0 c 0.43,-0.11 1.47,-0.92 2.55,-1.4 C 19.13,9.46 17.31,8.23 17,8 16.69,7.77 15.5,9 15.5,9 15.29,8.72 15.5,10.51 15.21,10.46 14.92,10.41 15,9.33 14.3,9.15 c -0.7,-0.18 -0.68,1.57 -0.73,1.9 -0.05,0.33 -1,0.86 -1.89,0.91 -0.89,0.05 -0.54,-1 -0.65,-1.36 -0.11,-0.36 1.25,-0.49 1.25,-0.49 A 0.91,0.91 0 0 0 11.85,9.54 C 11.53,9.41 11.72,8.09 11.72,8.09 A 10.33,10.33 0 0 1 12,6.61 c 0.11,-0.24 1.18,0 1.53,-0.12 0.35,-0.12 -0.12,-0.94 -0.12,-0.94 a 3.08,3.08 0 0 0 0.93,0 C 14.86,5.46 15.1,4.4 14.99,3.96 14.88,3.52 14.48,4.56 13.87,4.73 13.26,4.9 14.08,3.24 13.6,3.09 13.12,2.94 13.21,4.63 12.39,5.09 11.57,5.55 12.06,3.27 11.8,2.73 A 0.42,0.42 0 0 1 12,2.26 8.94,8.94 0 0 1 13,2.47 9.48,9.48 0 0 1 19.78,9.58 9.8,9.8 0 0 1 20,11.65 c 0,0.32 0,0.64 0,1 l -1.45,-0.16 c 0,0 -0.53,-1 -0.79,-1 -0.71,0.13 0.24,0.62 0,0.83 a 1.38,1.38 0 0 1 -0.79,0.19 5.6,5.6 0 0 0 -1.1,-0.9 c -0.47,-0.23 -0.9,0.53 -0.9,0.53 l 1.81,1.68 c 0.22,0.21 1.26,-0.65 1.26,-0.65 0.59,1.38 -0.48,2.42 -0.67,3.84 0,0.1 0.32,0.36 0.32,0.36 l 3.28,-4.06 A 10.84,10.84 0 0 0 21,11.65 10.69,10.69 0 0 0 20.75,9.36 Z M 5.52,19.74 v 0 A 9.57,9.57 0 0 1 1,11.65 9.44,9.44 0 0 1 1.07,10.5 v -0.06 a 9.48,9.48 0 0 1 3.34,-6.09 6.77,6.77 0 0 1 -0.16,1 C 4.12,5.87 4.81,6.42 4.44,6.68 3.61,7.27 2.83,8.46 2.09,9.02 c -1.34,1 -1.67,3.5 1.66,3.33 2.68,-0.13 0.75,4.33 1.92,6.17 0.81,1.31 0.38,1.39 -0.15,1.22 z M 5.92,6.31 C 5.45,5.68 6.45,3.31 6.57,3 V 3 A 7.44,7.44 0 0 1 7.68,2.58 h 0.07 c 0,0 1.09,0.58 1.17,1.25 C 9,4.5 6.42,7 5.92,6.32 Z M 9,4.9 h 0.84 c 0,0 -0.17,0.5 -0.59,0.5 C 8.83,5.4 9,4.9 9,4.9 Z m 1.59,2.67 c -0.42,0.08 -0.5,-1.09 -0.5,-1.09 l -0.5,0.67 c 0,0 -0.34,-0.33 0,-1 C 9.93,5.48 10.71,5.5 10.84,5.82 11.17,6.65 11,7.47 10.59,7.57 Z"
     id="path4542"
     style="display:inline;fill:#bebebe;fill-opacity:1"
     inkscape:connector-curvature="0" />
  <polygon
     class="cls-2"
     points="17.35,19.23 14.63,16.18 12.39,18.18 17.46,23.86 26,13.45 23.66,11.56 "
     id="polygon4544"
     style="display:inline;fill:none;stroke:#37b34a;stroke-opacity:1;stroke-width:0.99969488;stroke-miterlimit:4;stroke-dasharray:none"
     transform="matrix(0.901275,0,0,0.901275,1.8950358,1.7518001)" />
</svg>
