<svg id="Layer_1" data-name="Layer 1" xmlns="http://www.w3.org/2000/svg" viewBox="0 0 25 25"><defs><style>.cls-1{fill:#4b4a4b;}</style></defs><title>YTL_icons_ylapalkki</title><path class="cls-1" d="M20.48,1.5h-16a3,3,0,0,0-3,3v16a3,3,0,0,0,3,3h16a3,3,0,0,0,3-3v-16A3,3,0,0,0,20.48,1.5ZM11.38,5a1.12,1.12,0,1,1,2.24,0v7.55a1.12,1.12,0,1,1-2.24,0Zm7.53,10.42a6.91,6.91,0,0,1-3.74,3.77,6.84,6.84,0,0,1-2.64.53,7.06,7.06,0,0,1-2.67-.53A6.93,6.93,0,0,1,9.14,6.75a.9.9,0,0,1,.47-.13V9.17A4.72,4.72,0,0,0,8.2,14.61a4.66,4.66,0,1,0,7.19-5.44V6.62a.9.9,0,0,1,.47.13,7,7,0,0,1,3,3.4A6.88,6.88,0,0,1,18.91,15.46Z"/></svg>