<?xml version="1.0" encoding="UTF-8" standalone="no"?>
<svg
   xmlns:dc="http://purl.org/dc/elements/1.1/"
   xmlns:cc="http://creativecommons.org/ns#"
   xmlns:rdf="http://www.w3.org/1999/02/22-rdf-syntax-ns#"
   xmlns:svg="http://www.w3.org/2000/svg"
   xmlns="http://www.w3.org/2000/svg"
   xmlns:sodipodi="http://sodipodi.sourceforge.net/DTD/sodipodi-0.dtd"
   xmlns:inkscape="http://www.inkscape.org/namespaces/inkscape"
   id="Layer_1"
   data-name="Layer 1"
   viewBox="0 0 25 25"
   version="1.1"
   sodipodi:docname="system-shutdown.svg"
   inkscape:version="0.92.2 5c3e80d, 2017-08-06">
  <metadata
     id="metadata13">
    <rdf:RDF>
      <cc:Work
         rdf:about="">
        <dc:format>image/svg+xml</dc:format>
        <dc:type
           rdf:resource="http://purl.org/dc/dcmitype/StillImage" />
      </cc:Work>
    </rdf:RDF>
  </metadata>
  <sodipodi:namedview
     pagecolor="#ffffff"
     bordercolor="#666666"
     borderopacity="1"
     objecttolerance="10"
     gridtolerance="10"
     guidetolerance="10"
     inkscape:pageopacity="0"
     inkscape:pageshadow="2"
     inkscape:window-width="1370"
     inkscape:window-height="908"
     id="namedview11"
     showgrid="false"
     inkscape:zoom="9.44"
     inkscape:cx="12.605932"
     inkscape:cy="12.5"
     inkscape:window-x="0"
     inkscape:window-y="0"
     inkscape:window-maximized="0"
     inkscape:current-layer="Layer_1" />
  <defs
     id="defs4">
    <style
       id="style2">.cls-1{fill:#bebebeff;}</style>
  </defs>
  <title
     id="title6">YTL_icons_ylapalkki</title>
  <path
     class="cls-1"
     d="M20.48,1.5h-16a3,3,0,0,0-3,3v16a3,3,0,0,0,3,3h16a3,3,0,0,0,3-3v-16A3,3,0,0,0,20.48,1.5ZM11.38,5a1.12,1.12,0,1,1,2.24,0v7.55a1.12,1.12,0,1,1-2.24,0Zm7.53,10.42a6.91,6.91,0,0,1-3.74,3.77,6.84,6.84,0,0,1-2.64.53,7.06,7.06,0,0,1-2.67-.53A6.93,6.93,0,0,1,9.14,6.75a.9.9,0,0,1,.47-.13V9.17A4.72,4.72,0,0,0,8.2,14.61a4.66,4.66,0,1,0,7.19-5.44V6.62a.9.9,0,0,1,.47.13,7,7,0,0,1,3,3.4A6.88,6.88,0,0,1,18.91,15.46Z"
     id="path8"
     style="fill:#bebebe;fill-opacity:1" />
</svg>
